<svg xmlns="http://www.w3.org/2000/svg" height="40" viewBox="0 -960 960 960" width="40"><path d="M178.461-200q-24.577 0-41.519-16.942Q120-233.884 120-258.461v-443.078q0-24.577 16.942-41.519Q153.884-760 178.461-760h603.078q24.577 0 41.519 16.942Q840-726.116 840-701.539v443.078q0 24.577-16.942 41.519Q806.116-200 781.539-200H178.461ZM480-482.359 153.846-698.718v440.257q0 10.769 6.923 17.692t17.692 6.923h603.078q10.769 0 17.692-6.923t6.923-17.692v-440.257L480-482.359Zm0-38.462 312.718-205.333h-624.77L480-520.821ZM153.846-698.718v-27.436 467.693q0 10.769 6.923 17.692t17.692 6.923h-24.615v-464.872Z"/></svg>