<svg xmlns="http://www.w3.org/2000/svg" height="40" viewBox="0 -960 960 960" width="40"><path d="M298.461-80q-24.577 0-41.519-16.942Q240-113.884 240-138.461v-683.078q0-24.577 16.942-41.519Q273.884-880 298.461-880h363.078q24.577 0 41.519 16.942Q720-846.116 720-821.539v683.078q0 24.577-16.942 41.519Q686.116-80 661.539-80H298.461Zm-24.615-163.076v104.615q0 9.231 7.692 16.923 7.692 7.692 16.923 7.692h363.078q9.231 0 16.923-7.692 7.692-7.692 7.692-16.923v-104.615H273.846Zm206.28 92.051q11.13 0 19.348-8.079 8.218-8.078 8.218-19.474t-8.344-19.614q-8.344-8.218-19.474-8.218t-19.348 8.342q-8.218 8.341-8.218 19.467 0 11.653 8.344 19.614 8.344 7.962 19.474 7.962Zm-206.28-125.897h412.308v-478.463H273.846v478.463Zm0-512.309h412.308v-32.308q0-9.231-7.692-16.923-7.692-7.692-16.923-7.692H298.461q-9.231 0-16.923 7.692-7.692 7.692-7.692 16.923v32.308Zm0 546.155v129.23-129.23Zm0-546.155V-846.154v56.923Z"/></svg>