<?xml version="1.0" encoding="UTF-8"?>
<svg xmlns="http://www.w3.org/2000/svg" id="Layer_1" data-name="Layer 1" viewBox="0 0 24 22" width="20" height="22"><path d="M14,4c0-.552,.448-1,1-1s1,.448,1,1-.448,1-1,1-1-.448-1-1Zm10,17.5c0,1.425-1.075,2.5-2.5,2.5H12c-3.247,0-6.288-1.276-8.563-3.594C1.327,18.258,.126,15.466,.01,12.48c-.01-.053-.011-.522-.008-.704C.121,5.282,5.675,0,12.382,0h1.687c.02,0,9.433,.024,9.433,.024,.276,0,.5,.225,.499,.501,0,.275-.225,.499-.5,.499h0l-1.515-.003c-.241,4.074-3.314,6.979-7.484,6.979h-.604c-1.999,0-3.902,.841-5.34,2.168,.178,.55,.82,1.832,2.944,1.832,.276,0,.5,.224,.5,.5s-.224,.5-.5,.5c-2.112,0-3.217-1.072-3.702-2.036-.74,.886-1.291,1.92-1.578,3.028,.086,.266,.741,2.008,3.28,2.008,.276,0,.5,.224,.5,.5s-.224,.5-.5,.5c-1.714,0-2.834-.689-3.501-1.443-.046,1.894,.675,3.703,2.032,5.101,1.444,1.488,3.462,2.342,5.537,2.342h.356c.972-.722,5.504-4,7.575-4,1.425,0,2.5,1.075,2.5,2.5ZM11,4c0,1.738,1.29,3,3.068,3h.432c3.591,0,6.243-2.485,6.482-5.981l-7.064-.015c-1.7,.069-2.919,1.308-2.919,2.997Zm-7.416,1.049l.003,.023c.204,2.544,1.937,4.339,4.241,4.424,1.093-1.026,2.429-1.8,3.88-2.198-1.047-.709-1.707-1.898-1.707-3.299,0-1.189,.476-2.226,1.261-2.946-3.072,.296-5.805,1.793-7.677,3.995ZM1.004,12.296c.163,.352,.916,1.689,3,1.704,.356-.003,.778-.041,1.216-.125,.309-1.267,.924-2.452,1.757-3.468-2.109-.392-3.71-1.994-4.23-4.238-1.071,1.639-1.707,3.565-1.745,5.625-.003,.168-.002,.336,.002,.503Zm7.663,10.193c-.486-.329-.94-.709-1.354-1.135-1.557-1.604-2.379-3.688-2.313-5.869,.006-.189,.019-.377,.038-.563-.345,.051-.678,.078-.997,.078-1.287-.009-2.231-.424-2.843-.909,.403,2.107,1.414,4.049,2.953,5.615,1.28,1.304,2.826,2.249,4.517,2.783Zm14.333-.989c0-.883-.617-1.5-1.5-1.5-1.236,0-4.017,1.729-5.854,3h5.854c.883,0,1.5-.617,1.5-1.5Z"/></svg>
